<mxfile host="app.diagrams.net" agent="Mozilla/5.0 (Windows NT 10.0; Win64; x64) AppleWebKit/537.36 (KHTML, like Gecko) Chrome/136.0.0.0 Safari/537.36" version="27.0.5">
  <diagram name="Page-1" id="FdaeDhRs-IwntTBBNvDX">
    <mxGraphModel dx="1042" dy="527" grid="1" gridSize="10" guides="1" tooltips="1" connect="1" arrows="1" fold="1" page="1" pageScale="1" pageWidth="850" pageHeight="1100" math="0" shadow="0">
      <root>
        <mxCell id="0" />
        <mxCell id="1" parent="0" />
        <mxCell id="zaIl0f02FCHLeNXVWWQf-5" value="" style="group" parent="1" vertex="1" connectable="0">
          <mxGeometry x="40" y="190" width="70" height="60" as="geometry" />
        </mxCell>
        <mxCell id="zaIl0f02FCHLeNXVWWQf-1" value="Sinusoid" style="text;html=1;align=center;verticalAlign=middle;whiteSpace=wrap;rounded=0;" parent="zaIl0f02FCHLeNXVWWQf-5" vertex="1">
          <mxGeometry width="70" height="30" as="geometry" />
        </mxCell>
        <mxCell id="zaIl0f02FCHLeNXVWWQf-2" value="" style="pointerEvents=1;verticalLabelPosition=bottom;shadow=0;dashed=0;align=center;html=1;verticalAlign=top;shape=mxgraph.electrical.waveforms.sine_wave;" parent="zaIl0f02FCHLeNXVWWQf-5" vertex="1">
          <mxGeometry x="11.666666666666668" y="30" width="46.66666666666667" height="30" as="geometry" />
        </mxCell>
        <mxCell id="zaIl0f02FCHLeNXVWWQf-4" value="" style="rounded=0;whiteSpace=wrap;html=1;fillColor=none;" parent="zaIl0f02FCHLeNXVWWQf-5" vertex="1">
          <mxGeometry width="70" height="60" as="geometry" />
        </mxCell>
        <mxCell id="zaIl0f02FCHLeNXVWWQf-6" value="+ Noise" style="rounded=0;whiteSpace=wrap;html=1;fillColor=none;" parent="1" vertex="1">
          <mxGeometry x="160" y="190" width="70" height="60" as="geometry" />
        </mxCell>
        <mxCell id="zaIl0f02FCHLeNXVWWQf-8" value="Primary path P(z)" style="rounded=0;whiteSpace=wrap;html=1;fillColor=none;" parent="1" vertex="1">
          <mxGeometry x="280" y="190" width="70" height="60" as="geometry" />
        </mxCell>
        <mxCell id="zaIl0f02FCHLeNXVWWQf-11" value="Secondary path S(z)" style="rounded=0;whiteSpace=wrap;html=1;fillColor=none;" parent="1" vertex="1">
          <mxGeometry x="400" y="190" width="70" height="60" as="geometry" />
        </mxCell>
        <mxCell id="zaIl0f02FCHLeNXVWWQf-12" value="" style="endArrow=classic;html=1;rounded=0;exitX=1;exitY=0.5;exitDx=0;exitDy=0;entryX=0;entryY=0.5;entryDx=0;entryDy=0;" parent="1" source="zaIl0f02FCHLeNXVWWQf-4" target="zaIl0f02FCHLeNXVWWQf-6" edge="1">
          <mxGeometry width="50" height="50" relative="1" as="geometry">
            <mxPoint x="210" y="380" as="sourcePoint" />
            <mxPoint x="260" y="330" as="targetPoint" />
          </mxGeometry>
        </mxCell>
        <mxCell id="zaIl0f02FCHLeNXVWWQf-13" value="" style="endArrow=classic;html=1;rounded=0;exitDx=0;exitDy=0;entryX=0;entryY=0.5;entryDx=0;entryDy=0;exitX=1;exitY=0.5;" parent="1" source="zaIl0f02FCHLeNXVWWQf-6" target="zaIl0f02FCHLeNXVWWQf-8" edge="1">
          <mxGeometry width="50" height="50" relative="1" as="geometry">
            <mxPoint x="250" y="220" as="sourcePoint" />
            <mxPoint x="300" y="290" as="targetPoint" />
          </mxGeometry>
        </mxCell>
        <mxCell id="zaIl0f02FCHLeNXVWWQf-14" value="" style="endArrow=classic;html=1;rounded=0;exitX=1;exitY=0.5;exitDx=0;exitDy=0;entryX=0;entryY=0.5;entryDx=0;entryDy=0;" parent="1" source="zaIl0f02FCHLeNXVWWQf-8" target="zaIl0f02FCHLeNXVWWQf-11" edge="1">
          <mxGeometry width="50" height="50" relative="1" as="geometry">
            <mxPoint x="420" y="320" as="sourcePoint" />
            <mxPoint x="470" y="320" as="targetPoint" />
          </mxGeometry>
        </mxCell>
        <mxCell id="zaIl0f02FCHLeNXVWWQf-16" value="" style="verticalLabelPosition=bottom;shadow=0;dashed=0;align=center;html=1;verticalAlign=top;shape=mxgraph.electrical.abstract.summation_point;fillColor=none;" parent="1" vertex="1">
          <mxGeometry x="556" y="195" width="50" height="50" as="geometry" />
        </mxCell>
        <mxCell id="zaIl0f02FCHLeNXVWWQf-17" value="" style="endArrow=classic;html=1;rounded=0;exitX=1;exitY=0.5;exitDx=0;exitDy=0;entryX=0;entryY=0.5;entryDx=0;entryDy=0;entryPerimeter=0;" parent="1" source="zaIl0f02FCHLeNXVWWQf-11" target="zaIl0f02FCHLeNXVWWQf-16" edge="1">
          <mxGeometry width="50" height="50" relative="1" as="geometry">
            <mxPoint x="530" y="360" as="sourcePoint" />
            <mxPoint x="580" y="310" as="targetPoint" />
          </mxGeometry>
        </mxCell>
        <mxCell id="zaIl0f02FCHLeNXVWWQf-18" value="" style="endArrow=classic;html=1;rounded=0;exitX=1;exitY=0.5;exitDx=0;exitDy=0;exitPerimeter=0;" parent="1" source="zaIl0f02FCHLeNXVWWQf-16" edge="1">
          <mxGeometry width="50" height="50" relative="1" as="geometry">
            <mxPoint x="680" y="320" as="sourcePoint" />
            <mxPoint x="800" y="220" as="targetPoint" />
          </mxGeometry>
        </mxCell>
        <mxCell id="zaIl0f02FCHLeNXVWWQf-21" value="Predict W(z)" style="rounded=0;whiteSpace=wrap;html=1;fillColor=none;" parent="1" vertex="1">
          <mxGeometry x="340" y="310" width="70" height="60" as="geometry" />
        </mxCell>
        <mxCell id="zaIl0f02FCHLeNXVWWQf-23" value="" style="endArrow=none;html=1;rounded=0;" parent="1" edge="1">
          <mxGeometry width="50" height="50" relative="1" as="geometry">
            <mxPoint x="250" y="460" as="sourcePoint" />
            <mxPoint x="250" y="220" as="targetPoint" />
          </mxGeometry>
        </mxCell>
        <mxCell id="zaIl0f02FCHLeNXVWWQf-25" value="" style="endArrow=classic;html=1;rounded=0;entryX=0;entryY=0.5;entryDx=0;entryDy=0;" parent="1" target="zaIl0f02FCHLeNXVWWQf-30" edge="1">
          <mxGeometry width="50" height="50" relative="1" as="geometry">
            <mxPoint x="250" y="460" as="sourcePoint" />
            <mxPoint x="500" y="460" as="targetPoint" />
          </mxGeometry>
        </mxCell>
        <mxCell id="zaIl0f02FCHLeNXVWWQf-26" value="" style="endArrow=classic;html=1;rounded=0;entryX=0;entryY=0.5;entryDx=0;entryDy=0;" parent="1" target="zaIl0f02FCHLeNXVWWQf-21" edge="1">
          <mxGeometry width="50" height="50" relative="1" as="geometry">
            <mxPoint x="250" y="340" as="sourcePoint" />
            <mxPoint x="170" y="350" as="targetPoint" />
          </mxGeometry>
        </mxCell>
        <mxCell id="zaIl0f02FCHLeNXVWWQf-29" value="" style="edgeStyle=segmentEdgeStyle;endArrow=classic;html=1;curved=0;rounded=0;endSize=8;startSize=8;entryX=0.5;entryY=1;entryDx=0;entryDy=0;entryPerimeter=0;exitX=1;exitY=0.5;exitDx=0;exitDy=0;" parent="1" source="zaIl0f02FCHLeNXVWWQf-21" target="zaIl0f02FCHLeNXVWWQf-16" edge="1">
          <mxGeometry width="50" height="50" relative="1" as="geometry">
            <mxPoint x="490" y="340" as="sourcePoint" />
            <mxPoint x="540" y="290" as="targetPoint" />
          </mxGeometry>
        </mxCell>
        <mxCell id="zaIl0f02FCHLeNXVWWQf-30" value="Adapt LMS" style="rounded=0;whiteSpace=wrap;html=1;fillColor=none;" parent="1" vertex="1">
          <mxGeometry x="400" y="430" width="70" height="60" as="geometry" />
        </mxCell>
        <mxCell id="zaIl0f02FCHLeNXVWWQf-34" value="" style="endArrow=classic;html=1;rounded=0;exitX=0.5;exitY=0;exitDx=0;exitDy=0;edgeStyle=isometricEdgeStyle;elbow=vertical;entryX=0.5;entryY=1;entryDx=0;entryDy=0;" parent="1" source="zaIl0f02FCHLeNXVWWQf-30" target="zaIl0f02FCHLeNXVWWQf-21" edge="1">
          <mxGeometry width="50" height="50" relative="1" as="geometry">
            <mxPoint x="290" y="430" as="sourcePoint" />
            <mxPoint x="300" y="280" as="targetPoint" />
          </mxGeometry>
        </mxCell>
        <mxCell id="zaIl0f02FCHLeNXVWWQf-36" value="" style="edgeStyle=segmentEdgeStyle;endArrow=classic;html=1;curved=0;rounded=0;endSize=8;startSize=8;entryX=1;entryY=0.5;entryDx=0;entryDy=0;" parent="1" edge="1">
          <mxGeometry width="50" height="50" relative="1" as="geometry">
            <mxPoint x="641" y="220" as="sourcePoint" />
            <mxPoint x="471" y="460" as="targetPoint" />
            <Array as="points">
              <mxPoint x="680" y="220" />
              <mxPoint x="680" y="460" />
            </Array>
          </mxGeometry>
        </mxCell>
        <mxCell id="zaIl0f02FCHLeNXVWWQf-41" value="" style="group;aspect=fixed;" parent="1" vertex="1" connectable="0">
          <mxGeometry x="536" y="200" width="13" height="13" as="geometry" />
        </mxCell>
        <mxCell id="zaIl0f02FCHLeNXVWWQf-38" value="" style="endArrow=none;html=1;rounded=0;" parent="zaIl0f02FCHLeNXVWWQf-41" edge="1">
          <mxGeometry width="50" height="50" relative="1" as="geometry">
            <mxPoint x="6.5" y="13" as="sourcePoint" />
            <mxPoint x="6.5" as="targetPoint" />
          </mxGeometry>
        </mxCell>
        <mxCell id="zaIl0f02FCHLeNXVWWQf-40" value="" style="endArrow=none;html=1;rounded=0;" parent="zaIl0f02FCHLeNXVWWQf-41" edge="1">
          <mxGeometry width="50" height="50" relative="1" as="geometry">
            <mxPoint y="6.5" as="sourcePoint" />
            <mxPoint x="13" y="6.5" as="targetPoint" />
          </mxGeometry>
        </mxCell>
        <mxCell id="zaIl0f02FCHLeNXVWWQf-42" value="" style="endArrow=none;html=1;rounded=0;" parent="1" edge="1">
          <mxGeometry width="50" height="50" relative="1" as="geometry">
            <mxPoint x="550" y="251" as="sourcePoint" />
            <mxPoint x="566.5" y="251" as="targetPoint" />
          </mxGeometry>
        </mxCell>
        <mxCell id="zaIl0f02FCHLeNXVWWQf-43" value="d(n)" style="text;html=1;align=center;verticalAlign=middle;whiteSpace=wrap;rounded=0;" parent="1" vertex="1">
          <mxGeometry x="460" y="190" width="60" height="30" as="geometry" />
        </mxCell>
        <mxCell id="zaIl0f02FCHLeNXVWWQf-44" value="y(n)" style="text;html=1;align=center;verticalAlign=middle;whiteSpace=wrap;rounded=0;" parent="1" vertex="1">
          <mxGeometry x="398" y="310" width="60" height="30" as="geometry" />
        </mxCell>
        <mxCell id="zaIl0f02FCHLeNXVWWQf-45" value="e(n)" style="text;html=1;align=center;verticalAlign=middle;whiteSpace=wrap;rounded=0;" parent="1" vertex="1">
          <mxGeometry x="599" y="190" width="60" height="30" as="geometry" />
        </mxCell>
      </root>
    </mxGraphModel>
  </diagram>
</mxfile>
